<svg width="17.000000" height="17.000000" viewBox="0 0 17 17" fill="none" xmlns="http://www.w3.org/2000/svg" xmlns:xlink="http://www.w3.org/1999/xlink">
	<path id="align-justify" d="M17 1.21C17 0.54 16.45 0 15.78 0L1.21 0C0.54 0 0 0.54 0 1.21C0 1.88 0.54 2.42 1.21 2.42L15.78 2.42C16.45 2.42 17 1.88 17 1.21ZM17 10.92C17 10.25 16.45 9.71 15.78 9.71L1.21 9.71C0.54 9.71 0 10.25 0 10.92C0 11.6 0.54 12.14 1.21 12.14L15.78 12.14C16.45 12.14 17 11.6 17 10.92ZM0 6.07C0 6.74 0.54 7.28 1.21 7.28L15.78 7.28C16.45 7.28 17 6.74 17 6.07C17 5.39 16.45 4.85 15.78 4.85L1.21 4.85C0.54 4.85 0 5.39 0 6.07ZM17 15.78C17 15.11 16.45 14.57 15.78 14.57L1.21 14.57C0.54 14.57 0 15.11 0 15.78C0 16.45 0.54 17 1.21 17L15.78 17C16.45 17 17 16.45 17 15.78Z" fill="#FFFFFF" fill-opacity="1.000000" fill-rule="nonzero"/>
</svg>
