<svg width="17.000000" height="17.000000" viewBox="0 0 17 17" fill="none" xmlns="http://www.w3.org/2000/svg" xmlns:xlink="http://www.w3.org/1999/xlink">
	<path id="align-left" d="M10.92 1.21C10.92 1.88 10.38 2.42 9.71 2.42L1.21 2.42C0.54 2.42 0 1.88 0 1.21C0 0.54 0.54 0 1.21 0L9.71 0C10.38 0 10.92 0.54 10.92 1.21ZM10.92 10.92C10.92 11.6 10.38 12.14 9.71 12.14L1.21 12.14C0.54 12.14 0 11.6 0 10.92C0 10.25 0.54 9.71 1.21 9.71L9.71 9.71C10.38 9.71 10.92 10.25 10.92 10.92ZM0 6.07C0 5.39 0.54 4.85 1.21 4.85L15.78 4.85C16.45 4.85 17 5.39 17 6.07C17 6.74 16.45 7.28 15.78 7.28L1.21 7.28C0.54 7.28 0 6.74 0 6.07ZM17 15.78C17 16.45 16.45 17 15.78 17L1.21 17C0.54 17 0 16.45 0 15.78C0 15.11 0.54 14.57 1.21 14.57L15.78 14.57C16.45 14.57 17 15.11 17 15.78Z" fill="#FFFFFF" fill-opacity="1.000000" fill-rule="nonzero"/>
</svg>
