<svg width="17.000000" height="17.000000" viewBox="0 0 17 17" fill="none" xmlns="http://www.w3.org/2000/svg" xmlns:xlink="http://www.w3.org/1999/xlink">
	<path id="align-center" d="M13.35 1.21C13.35 0.54 12.81 0 12.14 0L4.85 0C4.18 0 3.64 0.54 3.64 1.21C3.64 1.88 4.18 2.42 4.85 2.42L12.14 2.42C12.81 2.42 13.35 1.88 13.35 1.21ZM17 6.07C17 5.39 16.45 4.85 15.78 4.85L1.21 4.85C0.54 4.85 0 5.39 0 6.07C0 6.74 0.54 7.28 1.21 7.28L15.78 7.28C16.45 7.28 17 6.74 17 6.07ZM0 15.78C0 16.45 0.54 17 1.21 17L15.78 17C16.45 17 17 16.45 17 15.78C17 15.11 16.45 14.57 15.78 14.57L1.21 14.57C0.54 14.57 0 15.11 0 15.78ZM13.35 10.92C13.35 10.25 12.81 9.71 12.14 9.71L4.85 9.71C4.18 9.71 3.64 10.25 3.64 10.92C3.64 11.6 4.18 12.14 4.85 12.14L12.14 12.14C12.81 12.14 13.35 11.6 13.35 10.92Z" fill="#FFFFFF" fill-opacity="1.000000" fill-rule="nonzero"/>
</svg>
