<svg width="17.000000" height="17.000000" viewBox="0 0 17 17" fill="none" xmlns="http://www.w3.org/2000/svg" xmlns:xlink="http://www.w3.org/1999/xlink">
	<path id="align-right" d="M17 1.21C17 1.88 16.45 2.42 15.78 2.42L7.28 2.42C6.61 2.42 6.07 1.88 6.07 1.21C6.07 0.54 6.61 0 7.28 0L15.78 0C16.45 0 17 0.54 17 1.21ZM17 10.92C17 11.6 16.45 12.14 15.78 12.14L7.28 12.14C6.61 12.14 6.07 11.6 6.07 10.92C6.07 10.25 6.61 9.71 7.28 9.71L15.78 9.71C16.45 9.71 17 10.25 17 10.92ZM0 6.07C0 5.39 0.54 4.85 1.21 4.85L15.78 4.85C16.45 4.85 17 5.39 17 6.07C17 6.74 16.45 7.28 15.78 7.28L1.21 7.28C0.54 7.28 0 6.74 0 6.07ZM17 15.78C17 16.45 16.45 17 15.78 17L1.21 17C0.54 17 0 16.45 0 15.78C0 15.11 0.54 14.57 1.21 14.57L15.78 14.57C16.45 14.57 17 15.11 17 15.78Z" fill="#FFFFFF" fill-opacity="1.000000" fill-rule="nonzero"/>
</svg>
