<svg width="14.571289" height="17.000000" viewBox="0 0 14.5713 17" fill="none" xmlns="http://www.w3.org/2000/svg" xmlns:xlink="http://www.w3.org/1999/xlink">
	<path id="bold" d="M0 1.21C0 0.54 0.54 0 1.21 0L3.03 0L3.64 0L8.5 0C11.18 0 13.35 2.17 13.35 4.85C13.35 6.04 12.92 7.13 12.21 7.98C13.62 8.83 14.57 10.37 14.57 12.14C14.57 14.82 12.39 17 9.71 17L3.64 17L3.03 17L1.21 17C0.54 17 0 16.45 0 15.78C0 15.11 0.54 14.57 1.21 14.57L1.82 14.57L1.82 8.5L1.82 2.42L1.21 2.42C0.54 2.42 0 1.88 0 1.21ZM8.5 7.28C9.83 7.28 10.92 6.19 10.92 4.85C10.92 3.51 9.83 2.42 8.5 2.42L4.25 2.42L4.25 7.28L8.5 7.28ZM4.25 9.71L4.25 14.57L9.71 14.57C11.05 14.57 12.14 13.48 12.14 12.14C12.14 10.8 11.05 9.71 9.71 9.71L8.5 9.71L4.25 9.71Z" fill="#FFFFFF" fill-opacity="1.000000" fill-rule="nonzero"/>
</svg>
