<svg width="10.000000" height="10.000000" viewBox="0 0 10 10" fill="none" xmlns="http://www.w3.org/2000/svg" xmlns:xlink="http://www.w3.org/1999/xlink">
	<path id="download" d="M5.62 0.62C5.62 0.27 5.34 0 5 0C4.65 0 4.37 0.27 4.37 0.62L4.37 5.36L2.94 3.93C2.69 3.68 2.3 3.68 2.05 3.93C1.81 4.17 1.81 4.57 2.05 4.81L4.55 7.31C4.8 7.56 5.19 7.56 5.44 7.31L7.94 4.81C8.18 4.57 8.18 4.17 7.94 3.93C7.69 3.68 7.3 3.68 7.05 3.93L5.62 5.36L5.62 0.62ZM1.25 6.87C0.56 6.87 0 7.43 0 8.12L0 8.75C0 9.43 0.56 10 1.25 10L8.75 10C9.43 10 10 9.43 10 8.75L10 8.12C10 7.43 9.43 6.87 8.75 6.87L6.76 6.87L5.88 7.75C5.39 8.24 4.6 8.24 4.11 7.75L3.23 6.87L1.25 6.87ZM8.43 7.96C8.46 7.96 8.49 7.97 8.52 7.97C8.55 7.98 8.58 7.99 8.61 8C8.64 8.01 8.67 8.03 8.69 8.04C8.72 8.06 8.74 8.08 8.76 8.1C8.79 8.12 8.81 8.15 8.82 8.17C8.84 8.2 8.85 8.22 8.87 8.25C8.88 8.28 8.89 8.31 8.89 8.34C8.9 8.37 8.9 8.4 8.9 8.43C8.9 8.46 8.9 8.49 8.89 8.52C8.89 8.55 8.88 8.58 8.87 8.61C8.85 8.64 8.84 8.67 8.82 8.69C8.81 8.72 8.79 8.74 8.76 8.76C8.74 8.79 8.72 8.81 8.69 8.82C8.67 8.84 8.64 8.85 8.61 8.87C8.58 8.88 8.55 8.89 8.52 8.89C8.49 8.9 8.46 8.9 8.43 8.9C8.4 8.9 8.37 8.9 8.34 8.89C8.31 8.89 8.28 8.88 8.25 8.87C8.22 8.85 8.2 8.84 8.17 8.82C8.15 8.81 8.12 8.79 8.1 8.76C8.08 8.74 8.06 8.72 8.04 8.69C8.03 8.67 8.01 8.64 8 8.61C7.99 8.58 7.98 8.55 7.97 8.52C7.97 8.49 7.96 8.46 7.96 8.43C7.96 8.4 7.97 8.37 7.97 8.34C7.98 8.31 7.99 8.28 8 8.25C8.01 8.22 8.03 8.2 8.04 8.17C8.06 8.15 8.08 8.12 8.1 8.1C8.12 8.08 8.15 8.06 8.17 8.04C8.2 8.03 8.22 8.01 8.25 8C8.28 7.99 8.31 7.98 8.34 7.97C8.37 7.97 8.4 7.96 8.43 7.96Z" fill="#FFFFFF" fill-opacity="1.000000" fill-rule="nonzero"/>
</svg>
