<svg width="21.847656" height="17.000000" viewBox="0 0 21.8477 17" fill="none" xmlns="http://www.w3.org/2000/svg" xmlns:xlink="http://www.w3.org/1999/xlink">
	<path id="font-size" d="M2.42 3.64L2.42 2.42L4.85 2.42L4.85 14.56L3.64 14.56C2.97 14.56 2.42 15.1 2.42 15.77C2.42 16.45 2.97 16.99 3.64 16.99L8.49 16.99C9.16 16.99 9.71 16.45 9.71 15.77C9.71 15.1 9.16 14.56 8.49 14.56L7.28 14.56L7.28 2.42L9.71 2.42L9.71 3.64C9.71 4.31 10.25 4.85 10.92 4.85C11.59 4.85 12.13 4.31 12.13 3.64L12.13 1.82C12.13 0.81 11.32 0 10.31 0L6.06 0L1.82 0C0.81 0 0 0.81 0 1.82L0 3.64C0 4.31 0.54 4.85 1.21 4.85C1.88 4.85 2.42 4.31 2.42 3.64ZM19.06 0.35C18.59 -0.12 17.82 -0.12 17.34 0.35L14.91 2.78C14.56 3.13 14.46 3.65 14.65 4.1C14.84 4.56 15.28 4.85 15.77 4.85L16.99 4.85L16.99 12.14L15.77 12.14C15.29 12.14 14.84 12.43 14.65 12.89C14.46 13.34 14.57 13.86 14.91 14.21L17.34 16.64C17.82 17.11 18.59 17.11 19.06 16.64L21.49 14.21C21.84 13.86 21.94 13.34 21.75 12.89C21.56 12.43 21.12 12.14 20.63 12.14L19.41 12.14L19.41 4.85L20.63 4.85C21.12 4.85 21.56 4.56 21.75 4.1C21.94 3.65 21.83 3.13 21.49 2.78L19.06 0.35Z" fill="#FFFFFF" fill-opacity="1.000000" fill-rule="nonzero"/>
</svg>
