<svg width="14.450195" height="17.000000" viewBox="0 0 14.4502 17" fill="none" xmlns="http://www.w3.org/2000/svg" xmlns:xlink="http://www.w3.org/1999/xlink">
	<path id="font-color" d="M8.19 0.67C8.04 0.26 7.65 0 7.22 0C6.79 0 6.4 0.26 6.25 0.67L1.86 12.38L1.03 12.38C0.46 12.38 0 12.84 0 13.41C0 13.98 0.46 14.45 1.03 14.45L4.12 14.45C4.69 14.45 5.16 13.98 5.16 13.41C5.16 12.84 4.69 12.38 4.12 12.38L4.07 12.38L4.65 10.83L9.79 10.83L10.37 12.38L10.32 12.38C9.75 12.38 9.28 12.84 9.28 13.41C9.28 13.98 9.75 14.45 10.32 14.45L13.41 14.45C13.98 14.45 14.45 13.98 14.45 13.41C14.45 12.84 13.98 12.38 13.41 12.38L12.58 12.38L8.19 0.67ZM9.02 8.77L5.42 8.77L7.22 3.97L9.02 8.77Z" fill="#FFFFFF" fill-opacity="1.000000" fill-rule="nonzero"/>
	<rect id="Прямоугольник 6" y="15.299988" width="14.450000" height="1.700000" fill="#805AD4" fill-opacity="1.000000"/>
</svg>
