<svg width="17.000000" height="17.000000" viewBox="0 0 17 17" fill="none" xmlns="http://www.w3.org/2000/svg" xmlns:xlink="http://www.w3.org/1999/xlink">
	<rect id="Прямоугольник 10" width="17.000000" height="17.000000" fill="#805AD4" fill-opacity="1.000000"/>
	<path id="font-color" d="M9.37 2.6C9.23 2.24 8.88 2 8.5 2C8.11 2 7.76 2.24 7.62 2.6L3.67 13.14L2.92 13.14C2.41 13.14 2 13.55 2 14.07C2 14.58 2.41 15 2.92 15L5.71 15C6.22 15 6.64 14.58 6.64 14.07C6.64 13.55 6.22 13.14 5.71 13.14L5.66 13.14L6.18 11.75L10.81 11.75L11.33 13.14L11.28 13.14C10.77 13.14 10.35 13.55 10.35 14.07C10.35 14.58 10.77 15 11.28 15L14.07 15C14.58 15 15 14.58 15 14.07C15 13.55 14.58 13.14 14.07 13.14L13.32 13.14L9.37 2.6ZM10.11 9.89L6.88 9.89L8.5 5.57L10.11 9.89Z" fill="#FFFFFF" fill-opacity="1.000000" fill-rule="nonzero"/>
</svg>
