<svg width="17.000000" height="14.166748" viewBox="0 0 17 14.1667" fill="none" xmlns="http://www.w3.org/2000/svg" xmlns:xlink="http://www.w3.org/1999/xlink">
	<desc>
			Created with Pixso.
	</desc>
	<defs/>
	<path id="img" d="M17 1.41675C17 0.637451 16.3625 0 15.5833 0L1.41669 0C0.637512 0 0 0.637451 0 1.41675L0 12.75C0 13.5291 0.637512 14.1667 1.41669 14.1667L15.5833 14.1667C16.3625 14.1667 17 13.5291 17 12.75L17 1.41675ZM10.9792 3.54175C10.9792 4.3208 11.6166 4.95825 12.3958 4.95825C13.175 4.95825 13.8125 4.3208 13.8125 3.54175C13.8125 2.76245 13.175 2.125 12.3958 2.125C11.6166 2.125 10.9792 2.76245 10.9792 3.54175ZM3.04584 11.3333C2.62085 11.3333 2.37292 10.8728 2.58539 10.5188L5.70209 5.1001C5.84375 4.85205 6.16248 4.85205 6.30414 5.1001L8.18121 8.323C8.32294 8.5354 8.64166 8.5708 8.78333 8.3584L10.3062 6.1626C10.4479 5.94995 10.7667 5.94995 10.9083 6.1626L13.7062 10.625C13.9188 10.9438 13.7062 11.3333 13.3167 11.3333L3.04584 11.3333Z" clip-rule="evenodd" fill="#2C2A40" fill-opacity="1.000000" fill-rule="evenodd"/>
</svg>
