<svg width="14.571289" height="17.000000" viewBox="0 0 14.5713 17" fill="none" xmlns="http://www.w3.org/2000/svg" xmlns:xlink="http://www.w3.org/1999/xlink">
	<path id="italic" d="M4.85 1.21C4.85 0.54 5.39 0 6.07 0L13.35 0C14.02 0 14.57 0.54 14.57 1.21C14.57 1.88 14.02 2.42 13.35 2.42L11.12 2.42L6.07 14.57L8.5 14.57C9.17 14.57 9.71 15.11 9.71 15.78C9.71 16.45 9.17 17 8.5 17L1.21 17C0.54 17 0 16.45 0 15.78C0 15.11 0.54 14.57 1.21 14.57L3.44 14.57L8.5 2.42L6.07 2.42C5.39 2.42 4.85 1.88 4.85 1.21Z" fill="#FFFFFF" fill-opacity="1.000000" fill-rule="nonzero"/>
</svg>
