<svg width="12.850098" height="10.000000" viewBox="0 0 12.8501 10" fill="none" xmlns="http://www.w3.org/2000/svg" xmlns:xlink="http://www.w3.org/1999/xlink">
	<path id="link" d="M11.94 5.24C13.15 4.04 13.15 2.1 11.94 0.9C10.88 -0.17 9.21 -0.31 7.98 0.57L7.95 0.59C7.64 0.81 7.57 1.24 7.79 1.54C8.01 1.84 8.44 1.92 8.74 1.7L8.77 1.67C9.46 1.19 10.39 1.26 10.98 1.86C11.65 2.53 11.65 3.61 10.98 4.28L8.6 6.67C7.93 7.34 6.84 7.34 6.17 6.67C5.58 6.08 5.5 5.14 5.99 4.46L6.01 4.43C6.23 4.12 6.16 3.7 5.85 3.48C5.55 3.26 5.12 3.33 4.91 3.64L4.88 3.67C4.01 4.89 4.14 6.57 5.21 7.63C6.41 8.83 8.35 8.83 9.56 7.63L11.94 5.24ZM0.9 4.75C-0.31 5.95 -0.31 7.89 0.9 9.09C1.96 10.16 3.63 10.3 4.86 9.42L4.89 9.4C5.2 9.18 5.27 8.75 5.05 8.45C4.83 8.15 4.4 8.07 4.1 8.29L4.07 8.32C3.38 8.8 2.45 8.73 1.86 8.13C1.19 7.46 1.19 6.38 1.86 5.71L4.25 3.32C4.91 2.65 6 2.65 6.67 3.32C7.26 3.91 7.34 4.85 6.85 5.53L6.83 5.56C6.61 5.87 6.68 6.29 6.99 6.51C7.29 6.73 7.72 6.66 7.93 6.35L7.96 6.32C8.83 5.1 8.7 3.42 7.63 2.36C6.43 1.16 4.49 1.16 3.28 2.36L0.9 4.75Z" fill="#805AD4" fill-opacity="1.000000" fill-rule="nonzero"/>
</svg>
