<svg width="12.000000" height="12.000000" viewBox="0 0 12 12" fill="none" xmlns="http://www.w3.org/2000/svg" xmlns:xlink="http://www.w3.org/1999/xlink">
	<desc>
			Created with Pixso.
	</desc>
	<defs/>
	<path id="moon" d="M4.79 3C4.79 3.83 5.04 4.64 5.51 5.34C5.97 6.03 6.63 6.57 7.41 6.88C8.18 7.2 9.03 7.28 9.85 7.11C10.66 6.94 11.41 6.53 12 5.93L12 6C12 9.31 9.31 12 6 12C2.68 12 0 9.31 0 6C0 2.68 2.68 0 6 0L6.06 0C5.66 0.39 5.34 0.85 5.12 1.37C4.91 1.88 4.79 2.44 4.79 3L4.79 3ZM1.2 6C1.19 7.07 1.55 8.11 2.21 8.95C2.87 9.79 3.79 10.39 4.83 10.65C5.87 10.91 6.97 10.82 7.95 10.38C8.92 9.95 9.73 9.2 10.23 8.25C9.34 8.46 8.4 8.44 7.52 8.19C6.63 7.94 5.83 7.47 5.18 6.81C4.52 6.16 4.05 5.36 3.8 4.47C3.55 3.59 3.53 2.65 3.74 1.76C2.97 2.17 2.33 2.78 1.88 3.52C1.43 4.27 1.19 5.12 1.2 6L1.2 6Z" fill="#2C2A40" fill-opacity="1.000000" fill-rule="evenodd"/>
</svg>
