<svg width="10.000000" height="10.000000" viewBox="0 0 10 10" fill="none" xmlns="http://www.w3.org/2000/svg" xmlns:xlink="http://www.w3.org/1999/xlink">
	<path id="plus" d="M5.76 0.76C5.76 0.34 5.42 0 5 0C4.57 0 4.23 0.34 4.23 0.76L4.23 4.23L0.76 4.23C0.34 4.23 0 4.57 0 5C0 5.42 0.34 5.76 0.76 5.76L4.23 5.76L4.23 9.23C4.23 9.65 4.57 10 5 10C5.42 10 5.76 9.65 5.76 9.23L5.76 5.76L9.23 5.76C9.65 5.76 10 5.42 10 5C10 4.57 9.65 4.23 9.23 4.23L5.76 4.23L5.76 0.76Z" fill="#FFFFFF" fill-opacity="1.000000" fill-rule="nonzero"/>
</svg>
