<svg width="19.424805" height="17.000000" viewBox="0 0 19.4248 17" fill="none" xmlns="http://www.w3.org/2000/svg" xmlns:xlink="http://www.w3.org/1999/xlink">
	<path id="strikethrough" d="M6.11 4.25C6.24 3.59 6.65 3.1 7.39 2.78C8.19 2.44 9.36 2.31 10.75 2.53C11.21 2.61 12.61 2.88 13.03 2.99C13.68 3.16 14.35 2.78 14.52 2.13C14.7 1.48 14.31 0.82 13.66 0.64C13.12 0.5 11.63 0.21 11.13 0.13C9.44 -0.13 7.78 -0.03 6.44 0.55C5.06 1.14 4 2.25 3.72 3.86C3.71 3.88 3.71 3.9 3.71 3.92C3.6 4.83 3.73 5.65 4.09 6.37C4.26 6.72 4.48 7.02 4.73 7.28L1.21 7.28C0.54 7.28 0 7.82 0 8.5C0 9.17 0.54 9.71 1.21 9.71L18.21 9.71C18.88 9.71 19.42 9.17 19.42 8.5C19.42 7.82 18.88 7.28 18.21 7.28L10.24 7.28L10.23 7.28L10.19 7.27C8.82 6.86 7.71 6.52 6.95 6.01C6.6 5.77 6.38 5.53 6.26 5.29C6.14 5.05 6.07 4.73 6.12 4.25L6.11 4.25ZM13.23 11.58C13.33 11.82 13.4 12.18 13.3 12.72C13.19 13.39 12.78 13.89 12.02 14.21C11.22 14.55 10.06 14.68 8.66 14.46C7.98 14.35 6.8 13.95 5.84 13.62C5.63 13.55 5.42 13.48 5.23 13.42C4.6 13.2 3.91 13.55 3.7 14.19C3.49 14.82 3.83 15.51 4.47 15.72C4.6 15.77 4.77 15.82 4.95 15.89C5.89 16.21 7.36 16.71 8.27 16.86L8.28 16.86C9.98 17.12 11.63 17.02 12.97 16.44C14.36 15.85 15.42 14.74 15.7 13.13C15.83 12.33 15.8 11.6 15.58 10.93L12.71 10.93C12.97 11.14 13.14 11.35 13.24 11.58L13.23 11.58Z" fill="#FFFFFF" fill-opacity="1.000000" fill-rule="nonzero"/>
</svg>
