<svg width="12.000000" height="12.000000" viewBox="0 0 12 12" fill="none" xmlns="http://www.w3.org/2000/svg" xmlns:xlink="http://www.w3.org/1999/xlink">
	<desc>
			Created with Pixso.
	</desc>
	<defs/>
	<path id="sun" d="M6 9.27C5.13 9.27 4.29 8.92 3.68 8.31C3.07 7.7 2.72 6.86 2.72 6C2.72 5.13 3.07 4.29 3.68 3.68C4.29 3.07 5.13 2.72 6 2.72C6.86 2.72 7.7 3.07 8.31 3.68C8.92 4.29 9.27 5.13 9.27 6C9.27 6.86 8.92 7.7 8.31 8.31C7.7 8.92 6.86 9.27 6 9.27ZM6 8.18C6.57 8.18 7.13 7.95 7.54 7.54C7.95 7.13 8.18 6.57 8.18 6C8.18 5.42 7.95 4.86 7.54 4.45C7.13 4.04 6.57 3.81 6 3.81C5.42 3.81 4.86 4.04 4.45 4.45C4.04 4.86 3.81 5.42 3.81 6C3.81 6.57 4.04 7.13 4.45 7.54C4.86 7.95 5.42 8.18 6 8.18L6 8.18ZM5.45 0L6.54 0L6.54 1.63L5.45 1.63L5.45 0ZM5.45 10.36L6.54 10.36L6.54 12L5.45 12L5.45 10.36ZM1.37 2.14L2.14 1.37L3.29 2.52L2.52 3.3L1.37 2.14L1.37 2.14ZM8.7 9.47L9.47 8.69L10.62 9.85L9.85 10.62L8.7 9.47ZM9.85 1.37L10.62 2.14L9.47 3.3L8.7 2.52L9.85 1.37L9.85 1.37ZM2.52 8.69L3.29 9.47L2.14 10.62L1.37 9.85L2.52 8.69L2.52 8.69ZM12 5.45L12 6.54L10.36 6.54L10.36 5.45L12 5.45ZM1.63 5.45L1.63 6.54L0 6.54L0 5.45L1.63 5.45Z" fill="#2C2A40" fill-opacity="1.000000" fill-rule="evenodd"/>
</svg>
