<svg width="17.000000" height="17.000000" viewBox="0 0 17 17" fill="none" xmlns="http://www.w3.org/2000/svg" xmlns:xlink="http://www.w3.org/1999/xlink">
	<path id="underline" d="M0.6 1.21C0.6 0.54 1.14 0 1.82 0L5.46 0C6.13 0 6.67 0.54 6.67 1.21C6.67 1.88 6.13 2.42 5.46 2.42L4.85 2.42L4.85 7.28C4.85 9.29 6.48 10.92 8.5 10.92C10.51 10.92 12.14 9.29 12.14 7.28L12.14 2.42L11.53 2.42C10.86 2.42 10.32 1.88 10.32 1.21C10.32 0.54 10.86 0 11.53 0L15.17 0C15.85 0 16.39 0.54 16.39 1.21C16.39 1.88 15.85 2.42 15.17 2.42L14.57 2.42L14.57 7.28C14.57 10.64 11.85 13.35 8.5 13.35C5.14 13.35 2.42 10.64 2.42 7.28L2.42 2.42L1.82 2.42C1.14 2.42 0.6 1.88 0.6 1.21ZM0 15.78C0 15.11 0.54 14.57 1.21 14.57L15.78 14.57C16.45 14.57 17 15.11 17 15.78C17 16.45 16.45 17 15.78 17L1.21 17C0.54 17 0 16.45 0 15.78Z" fill="#FFFFFF" fill-opacity="1.000000" fill-rule="nonzero"/>
</svg>
